<?xml version="1.0" encoding="UTF-8"?>
<svg width="480.14" height="300" version="1.1" viewBox="0 0 480.14 300" xml:space="preserve" xmlns="http://www.w3.org/2000/svg"><g transform="matrix(1.0003 0 0 1.0003 -16.007 -106.08)"><g clip-rule="evenodd" fill-rule="evenodd"><path d="m496 390c0 8.836-7.215 15.959-16.051 15.959h-447.89c-8.839 0-16.051-7.123-16.051-15.959v-267.99c0-8.747 7.212-15.959 16.051-15.959h447.9c8.836 0 16.051 7.212 16.051 15.959v267.99z" fill="#0a78a9"/><path d="m164.88 249.06v-4.775l-2.252 4.775h-19.93l-2.434-5.139v5.139h-37.152l-4.418-10.371h-7.396l-4.687 10.371h-19.21v-31.382l14.068-31.917h27.053l3.786 9.014v-8.928h33.005l7.305 15.244 7.123-15.33h104.33s5.502-0.093 9.107 2.434v-2.434h26.242v3.426s4.781-3.426 11.727-3.426h46.439l4.055 9.193v-9.193h29.668l5.41 9.193v-9.193h28.406v63.299h-29.127l-6.852-11v11h-36.342l-5.139-11.363h-7.037l-4.775 11.363h-22.002s-8.209-0.094-14.338-4.505v4.505h-43.736v-14.789c0-2.162-1.623-1.984-1.623-1.984h-1.625v16.773z" fill="#fff"/><path d="m143.06 262.76h57.44l8.297 9.379 8.479-9.379h44.181s4.15 0.086 8.117 2.163v-2.163h39.318c5.047 0 9.199 2.521 9.199 2.521v-2.521h50.588v2.341s3.604-2.341 8.385-2.341h33.002v2.341s4.148-2.341 8.48-2.341h25.879v59.695s-3.426 3.875-10.463 3.875h-34.086v-1.893s-3.248 1.893-8.209 1.893h-90.533v-15.423c0-1.528-0.629-1.8-1.984-1.8h-1.262v17.223h-28.314v-17.136s-3.156 1.713-8.385 1.713h-10.191v15.423h-34.896l-7.934-9.736-8.479 9.736h-56.629z" fill="#fff"/><g fill="#0a78a9"><polygon points="359.48 290.36 359.48 298.92 335.22 298.92 335.22 307.76 360.2 307.76 360.2 317.23 324.12 317.23 324.12 272.32 360.2 272.32 360.2 281.97 335.22 281.97 335.22 290.36"/><path d="m429.9 289.81c13.525 0.628 14.604 7.487 14.604 14.702 0 8.379-6.852 12.891-14.068 12.891h-23.174v-9.65h18.035c3.068 0 7.572 0 7.572-4.325 0-1.983-0.719-3.339-4.053-3.697-1.441-0.179-6.766-0.45-7.58-0.45-12.262-0.363-15.059-6.494-15.059-13.888 0-8.386 5.865-12.989 13.082-12.989h23.174v9.65h-16.957c-3.877 0-8.023-0.45-8.023 3.881 0 2.705 2.07 3.334 4.689 3.519 0.901-1e-3 6.944 0.356 7.758 0.356z"/><path d="m388.33 289.81c13.523 0.628 14.695 7.487 14.695 14.702 0 8.379-6.945 12.891-14.154 12.891h-23.174v-9.65h18.121c2.977 0 7.58 0 7.58-4.325 0-1.983-0.814-3.339-4.061-3.697-1.443-0.179-6.852-0.45-7.574-0.45-12.268-0.363-15.15-6.494-15.15-13.888 0-8.386 5.951-12.989 13.166-12.989h23.176v9.65h-16.957c-3.875 0-8.023-0.45-8.023 3.881 0 2.705 2.078 3.334 4.689 3.519 0.9-1e-3 6.852 0.356 7.666 0.356z"/><path d="m257.57 272.41h-38.683l-12.623 13.889-12.266-13.975h-43.461v44.906h42.02l13.254-14.88 12.986 14.972h21.1v-15.243h14.881c5.681 0 16.14-0.179 16.14-15.959 0-11.182-7.938-13.71-13.348-13.71zm-70.695 35.35h-25.428v-8.836h24.254v-8.564h-24.254v-8.387l26.782 0.088 10.73 12.174zm42.114 5.232-15.873-18.758 15.873-17.492zm24.886-20.199h-13.797v-10.732h13.797c4.599 0 6.13 2.889 6.13 5.145 1e-3 2.976-1.62 5.587-6.13 5.587z"/><path d="m310.87 296.85c6.039-2.976 7.572-7.036 7.572-12.445 0-9.65-7.752-11.998-13.16-11.998h-28.682v44.912h11.002v-15.871h14.432c3.783 0 5.318 3.789 5.41 7.664l0.271 8.207h10.727l-0.357-9.199c0-7.307-1.984-10.641-7.215-11.27zm-9.562-4.602h-13.705v-10.191h13.796c4.604 0 6.045 2.889 6.045 5.145 0 2.976-1.627 5.046-6.136 5.046z"/><rect x="281.02" y="194.77" width="11" height="44.906"/><polygon points="226.02 212.9 226.02 221.37 201.76 221.37 201.76 230.3 226.74 230.3 226.74 239.68 190.67 239.68 190.67 194.77 226.74 194.77 226.74 204.51 201.76 204.51 201.76 212.9"/><path d="m267.58 219.3c6.043-3.068 7.576-7.036 7.576-12.446 0-9.649-7.756-12.083-13.168-12.083h-28.671v44.906h10.998v-15.779h14.429c3.787 0 5.318 3.789 5.412 7.572l0.268 8.207h10.732l-0.363-9.193c0-7.215-1.984-10.641-7.213-11.184zm-9.559-4.689h-13.707v-10.191h13.798c4.596 0 6.043 2.976 6.043 5.139 1e-3 3.068-1.624 5.052-6.134 5.052z"/><path d="m165.24 194.77-13.524 30.118-13.436-30.118h-17.314v43.285l-19.295-43.285h-14.61l-19.659 44.906h11.723l4.24-10.006h22.003l4.418 10.006h22.183v-33.273l14.787 33.273h10.01l15.059-32.73v32.73h11.002v-44.906zm-77.729 25.25 6.584-15.693 6.852 15.693z"/><path d="m405.82 194.77v31.111l-18.578-31.111h-16.322v42.201l-18.756-42.201h-14.604l-15.244 34.808s-6.4 0-7.029-0.179c-2.705-0.543-6.852-2.434-6.852-10.277v-3.34c0-10.457 5.682-11.27 12.982-11.27h6.852v-9.742h-14.424c-4.961 0-15.873 3.79-16.23 22.274-0.271 12.446 5.139 22.725 17.309 22.725h14.609l4.324-10.099h22.01l4.326 10.099h21.732v-32.916l19.84 32.916h15.059v-44.999zm-67.722 25.25 6.586-15.693 6.852 15.693z"/></g></g></g></svg>
