<?xml version="1.0" encoding="UTF-8"?>
<svg width="479.99" height="300" version="1.1" viewBox="0 0 479.99 300" xml:space="preserve" xmlns="http://www.w3.org/2000/svg"><g transform="matrix(.99998 0 0 .99998 -16.002 -105.99)"><g clip-rule="evenodd" fill-rule="evenodd"><path d="m496 389.95c0 8.835-7.215 16.051-16.051 16.051h-447.89c-8.836 0-16.051-7.216-16.051-16.051v-267.9c0-8.836 7.215-16.052 16.051-16.052h447.9c8.836 0 16.051 7.216 16.051 16.052v267.9z" fill="#14477c"/><polygon points="326.74 341.08 330.98 340.36 335.13 339.36 339.28 338.29 343.24 336.84 347.21 335.31 351 333.59 354.69 331.7 358.3 329.62 361.82 327.37 365.25 324.94 368.5 322.41 371.56 319.71 374.62 316.82 377.42 313.84 380.13 310.69 382.74 307.44 385.17 304.11 387.34 300.59 389.51 296.98 391.31 293.29 393.11 289.41 394.64 285.53 396 281.48 397.17 277.42 398.16 273.27 398.88 268.94 399.43 264.7 399.78 260.28 399.87 255.87 399.78 251.44 399.43 247.02 398.88 242.79 398.16 238.55 397.17 234.4 396 230.35 394.64 226.28 393.11 222.41 391.31 218.62 389.51 214.92 387.34 211.32 385.17 207.8 382.74 204.47 380.13 201.22 377.42 198.06 374.62 195.09 371.56 192.29 368.5 189.59 365.25 186.98 361.82 184.63 358.3 182.37 354.69 180.3 351 178.4 347.21 176.69 343.24 175.16 339.28 173.81 335.13 172.64 330.98 171.64 326.74 170.92 322.42 170.38 317.99 170.02 313.58 169.93 309.16 170.02 304.83 170.38 300.5 170.92 296.27 171.64 292.12 172.64 287.97 173.81 284 175.16 280.12 176.69 276.33 178.4 272.64 180.3 269.03 182.37 265.51 184.63 262.18 186.98 258.92 189.59 255.77 192.29 252.8 195.09 249.91 198.06 247.3 201.22 244.68 204.47 242.34 207.8 240.08 211.32 238.01 214.92 236.12 218.62 234.4 222.41 232.87 226.28 231.52 230.35 230.35 234.4 229.35 238.55 228.64 242.79 228.09 247.02 227.73 251.44 227.64 255.87 227.73 260.28 228.09 264.7 228.64 268.94 229.35 273.27 230.35 277.42 231.52 281.48 232.87 285.53 234.4 289.41 236.12 293.29 238.01 296.98 240.08 300.59 242.34 304.11 244.68 307.44 247.3 310.69 249.91 313.84 252.8 316.82 255.77 319.71 258.92 322.41 262.18 324.94 265.51 327.37 269.03 329.62 272.64 331.7 276.33 333.59 280.12 335.31 284 336.84 287.97 338.29 292.12 339.36 296.27 340.36 300.5 341.08 304.83 341.71 309.16 341.98 313.58 342.07 317.99 341.98 322.42 341.71" fill="#fbb230"/><polygon points="211.5 341.08 215.73 340.36 219.88 339.36 224.04 338.29 228 336.84 231.88 335.31 235.67 333.59 239.36 331.7 242.97 329.62 246.48 327.37 249.82 324.94 253.07 322.41 256.23 319.71 259.2 316.82 262.09 313.84 264.7 310.69 267.32 307.44 269.66 304.11 271.91 300.59 273.98 296.98 275.88 293.29 277.6 289.41 279.13 285.53 280.48 281.48 281.66 277.42 282.65 273.27 283.36 268.94 283.9 264.7 284.27 260.28 284.36 255.87 284.27 251.44 283.9 247.02 283.36 242.79 282.65 238.55 281.66 234.4 280.48 230.35 279.13 226.28 277.6 222.41 275.88 218.62 273.98 214.92 271.91 211.32 269.66 207.8 267.32 204.47 264.7 201.22 262.09 198.06 259.2 195.09 256.23 192.29 253.07 189.59 249.82 186.98 246.48 184.63 242.97 182.37 239.36 180.3 235.67 178.4 231.88 176.69 228 175.16 224.04 173.81 219.88 172.64 215.73 171.64 211.5 170.92 207.17 170.38 202.84 170.02 198.42 169.93 194.01 170.02 189.58 170.38 185.26 170.92 181.02 171.64 176.88 172.64 172.72 173.81 168.76 175.16 164.79 176.69 161 178.4 157.31 180.3 153.7 182.37 150.18 184.63 146.76 186.98 143.51 189.59 140.44 192.29 137.38 195.09 134.58 198.06 131.87 201.22 129.26 204.47 126.83 207.8 124.66 211.32 122.49 214.92 120.69 218.62 118.89 222.41 117.36 226.28 116.01 230.35 114.83 234.4 113.93 238.55 113.12 242.79 112.58 247.02 112.22 251.44 112.13 255.87 112.22 260.28 112.58 264.7 113.12 268.94 113.93 273.27 114.83 277.42 116.01 281.48 117.36 285.53 118.89 289.41 120.69 293.29 122.49 296.98 124.66 300.59 126.83 304.11 129.26 307.44 131.87 310.69 134.58 313.84 137.38 316.82 140.44 319.71 143.51 322.41 146.76 324.94 150.18 327.37 153.7 329.62 157.31 331.7 161 333.59 164.79 335.31 168.76 336.84 172.72 338.29 176.88 339.36 181.02 340.36 185.26 341.08 189.58 341.71 194.01 341.98 198.42 342.07 202.84 341.98 207.17 341.71" fill="#eb2230"/><g fill="#fbb230"><polygon points="249.91 198.24 245.94 202.93 291.67 202.93 291.67 198.24"/><polygon points="241.8 208.61 239.09 213.3 291.67 213.3 291.67 208.61"/><polygon points="236.03 218.98 233.95 223.67 291.67 223.67 291.67 218.98"/><polygon points="231.88 229.45 230.43 234.04 291.67 234.04 291.67 229.45"/><polygon points="231.07 279.67 232.5 284.36 291.84 284.36 291.84 279.67"/><polygon points="234.67 290.04 236.84 294.73 291.84 294.73 291.84 290.04"/><polygon points="240.08 300.41 243.06 305.1 291.84 305.1 291.84 300.41"/><polygon points="247.39 310.78 251.54 315.47 291.84 315.47 291.84 310.78"/><polygon points="229.26 239.81 228.36 244.41 291.67 244.41 291.67 239.81"/><polygon points="267.86 269.3 266.95 273.99 291.12 273.99 291.12 269.3"/><polygon points="269.75 258.93 268.85 263.62 291.12 263.62 291.12 258.93"/><polygon points="227.1 263.62 226.74 258.93 233.05 258.93 233.05 263.62"/><path d="m391.58 304.38c2.256 0 4.061 1.892 4.061 4.054 0 2.256-1.805 4.061-4.061 4.061-2.255 0-4.054-1.805-4.054-4.061 0-2.162 1.799-4.054 4.054-4.054zm0 0.721c1.898 0 3.426 1.534 3.426 3.333 0 1.898-1.527 3.432-3.426 3.432-1.799 0-3.34-1.533-3.34-3.432 0-1.799 1.541-3.333 3.34-3.333z"/></g></g><path d="m390.05 310.24v-3.426h1.441c0.357 0 0.629 0 0.813 0.093 0.173 0.086 0.271 0.178 0.357 0.265 0.087 0.185 0.179 0.364 0.179 0.542 0 0.271-0.092 0.542-0.179 0.635-0.185 0.179-0.45 0.271-0.728 0.357 0.186 0.093 0.277 0.185 0.37 0.271 0.086 0.092 0.271 0.271 0.357 0.542l0.45 0.721h-0.808l-0.548-0.813c-0.094-0.271-0.266-0.357-0.357-0.449 0-0.087-0.093-0.087-0.18-0.179h-0.363-0.092v1.441zm0.715-1.984h0.455c0.357 0 0.537 0 0.629-0.086 0.086 0 0.186 0 0.186-0.093 0.086-0.092 0.086-0.178 0.086-0.271s0-0.179-0.086-0.271c-0.1-0.094-0.186-0.094-0.277-0.18h-0.45-0.542v0.901z" fill="#fbb230"/><path d="m390.68 270.47c2.255 0 4.055 1.805 4.055 4.061 0 2.255-1.8 4.054-4.055 4.054s-4.054-1.799-4.054-4.054c0-2.257 1.799-4.061 4.054-4.061zm0 0.72c1.898 0 3.427 1.533 3.427 3.34 0 1.891-1.528 3.426-3.427 3.426-1.897 0-3.426-1.535-3.426-3.426 0-1.806 1.528-3.34 3.426-3.34z" clip-rule="evenodd" fill="#fff" fill-rule="evenodd"/><path d="m389.14 276.24v-3.34h1.442c0.362 0 0.634 0 0.813 0.092 0.092 0 0.264 0.18 0.357 0.271 0.092 0.179 0.178 0.357 0.178 0.543 0 0.271-0.086 0.449-0.271 0.627-0.086 0.18-0.356 0.271-0.627 0.364 0.092 0.086 0.271 0.179 0.363 0.271 0.092 0.086 0.178 0.266 0.357 0.537l0.455 0.635h-0.813l-0.543-0.722c-0.179-0.271-0.271-0.45-0.363-0.45-0.086-0.092-0.086-0.185-0.173-0.185h-0.363-0.179v1.356h-0.633zm0.634-1.892h0.542c0.357 0 0.536 0 0.628-0.092 0.088 0 0.18-0.093 0.18-0.093 0.092-0.086 0.092-0.179 0.092-0.271 0-0.086-0.092-0.271-0.092-0.271-0.092-0.086-0.18-0.179-0.271-0.179h-0.536-0.542v0.906z" fill="#fff"/><g clip-rule="evenodd" fill-rule="evenodd"><g fill="#fff"><path d="m332.7 276.87 5.859-30.654h7.303l0.905 3.154c1.35-1.355 3.604-3.154 8.114-3.154l-2.254 8.115c-1.984 0-5.053-0.363-7.572 5.588-1.893 4.511-2.798 11.991-3.791 16.951z"/><path d="m222.14 238.55h8.108l-1.8 8.114h4.511l-1.355 6.311h-4.055l-2.255 12.175c-0.449 2.255 0 4.511 4.51 3.604l-0.899 6.766c-4.868 3.697-14.615 0.992-13.081-8.115z"/><path d="m258.3 263.35c0.9-4.959 3.156-17.129-11.361-17.129-13.524 0-15.33 13.525-15.33 15.324-0.444 1.805-0.444 15.33 13.98 15.33 3.604 0 8.657-0.45 10.912-1.35l1.35-6.315c-1.35 0.456-5.952 0.905-9.557 0.905-3.154 0-8.564 0-7.665-6.766h17.671z"/><polygon points="143.15 262.45 141.34 239.9 128.27 239.9 121.05 276.87 129.17 276.87 134.58 250.27 136.84 276.87 144.5 276.87 156.22 250.72 151.26 276.87 159.92 276.87 167.14 239.9 153.07 239.9"/><path d="m169.38 247.12-1.35 6.766c2.255 0 7.664-0.905 10.369-0.905s6.311-0.449 4.961 4.061c-2.256 0-17.137-2.256-19.392 10.819-1.257 8.657 9.021 11.813 15.33 7.665l0.905 1.8h7.66l3.16-16.681c3.335-15.059-11.181-15.33-21.643-13.525z"/><path d="m303.66 249.82c-2.076-1.264-3.34-1.264-5.952-1.264-2.526 0-8.479 2.526-9.292 9.286-1.264 8.479 4.239 12.268 12.262 9.742l2.169 7.215c-13.704 6.852-26.788-3.79-22.456-20.383 3.512-12.533 20.108-20.105 28.408-9.736z"/><path d="m375.17 249.82c-22.096-16.594-30.666 27.05-13.531 27.05 2.705 0 5.416-1.35 7.216-2.255l0.899 2.255h9.021l7.216-38.775h-8.57z"/><path d="m310.15 247.12-1.35 6.766c2.248 0 7.665-0.905 10.364-0.905 2.712 0 5.866-0.449 4.966 4.061-2.254 0-17.135-2.256-19.384 10.819-0.913 6.31 4.504 9.465 8.564 9.465 4.054 0 5.409-0.9 6.759-1.8l0.9 1.8h7.671l3.154-16.681c3.429-15.059-11.095-15.33-21.644-13.525z"/></g><path d="m240.62 257.49h10.37c1.171-8.207-8.657-6.581-10.37 0z" fill="#eb2230"/><path d="m182.02 263.35c-1.355 0-4.51-0.899-7.222 0.906-2.698 1.799-3.604 4.954-0.444 5.859 2.699 0.899 6.311-0.905 7.209-3.61z" fill="#eb2230"/><path d="m371.11 254.78c-2.705-3.611-8.564-0.899-10.37 5.859-1.349 4.511 1.356 7.666 4.061 7.666 5.681 1e-3 9.107-9.285 6.309-13.525z" fill="#fbb230"/><path d="m323.22 263.35c-1.348 0-4.504-0.899-7.215 0.906-2.698 1.799-3.604 4.954-0.443 5.859 2.699 0.899 6.76-0.905 7.209-3.61z" fill="#fbb230"/><path d="m258.3 277.32 0.457-3.155 5.409-27.5h7.21l0.899 3.155c1.355-1.355 3.611-3.155 8.121-3.155l-2.256 8.115c-1.713 0-5.323-0.363-8.028 6.852-1.534 4.147-2.434 11.184-3.247 15.688z" fill="#fff"/><path d="m214.65 254.06h-0.721l-0.356-0.092-0.364-0.087h-0.363l-0.358-0.093c-1.626-0.178-2.976-0.271-4.596-0.178-4.153 0.357-5.952 2.969-2.439 4.953 2.797 1.627 4.965 1.355 6.851 3.161 4.062 3.784 1.984 11.091-2.526 13.883l-0.807 0.363-0.9 0.363-0.991 0.265-0.899 0.271c-4.332 0.721-10.191 0.542-14.432-0.899l1.172-6.045c3.426 0.721 9.021 2.255 11.633 0.456 2.977-1.984 0.271-4.332-1.898-5.323l-1.078-0.358-1.078-0.449c-8.57-3.883-6.58-14.253 1.528-16.415 3.247-0.721 6.495-0.721 9.834-0.45h0.628c0.814 0.087 1.535 0.18 2.256 0.358h0.357l0.271 0.092h0.271l0.178 0.092h0.271z" fill="#fff"/></g></g></svg>
