<?xml version="1.0" encoding="UTF-8"?>
<svg width="480.05" height="300" version="1.1" viewBox="0 0 480.05 300" xml:space="preserve" xmlns="http://www.w3.org/2000/svg"><g transform="matrix(1.0003 0 0 1.0003 -16.054 -106.08)"><g clip-rule="evenodd" fill-rule="evenodd"><path d="m495.95 390c0 8.836-7.123 15.959-15.959 15.959h-447.98c-8.839 0-15.962-7.123-15.962-15.959v-267.99c0-8.836 7.123-15.959 15.962-15.959h447.98c8.836 0 15.959 7.123 15.959 15.959z" fill="#3a58a8"/><g fill="#fff"><polygon points="251.58 211 236.88 301.08 213.44 301.08 228.14 211"/><path d="m193.69 211-22.274 61.955-2.705-13.347-7.847-40.487s-0.989-8.121-11.181-8.121h-36.881l-0.452 1.533s11.272 2.348 24.529 10.285l20.38 78.265h24.437l37.241-90.083z"/><path d="m378.1 301.08h21.549l-18.756-90.083h-18.844c-8.748 0-10.818 6.766-10.818 6.766l-34.994 83.317h24.438l4.875-13.433h29.846zm-25.793-31.825 12.355-33.729 6.943 33.729z"/><path d="m318.13 232.65 3.334-19.298s-10.371-3.969-21.098-3.969c-11.633 0-39.314 5.139-39.314 29.848 0 23.267 32.457 23.537 32.457 35.799 0 12.176-29.121 10.006-38.682 2.256l-3.519 20.29s10.464 5.052 26.515 5.052c15.955 0 40.123-8.299 40.123-30.845 0-23.353-32.732-25.607-32.732-35.8 0-10.098 22.818-8.836 32.916-3.333z"/></g><path d="m168.71 259.61-7.847-40.487s-0.989-8.121-11.181-8.121h-36.881l-0.452 1.533s17.767 3.697 34.807 17.493c16.234 13.168 21.554 29.582 21.554 29.582z" fill="#faa634"/></g></g></svg>
